<mxfile host="app.diagrams.net" agent="Mozilla/5.0 (Windows NT 10.0; Win64; x64) AppleWebKit/537.36 (KHTML, like Gecko) Chrome/134.0.0.0 Safari/537.36" version="26.1.0">
  <diagram name="Page-1" id="1dbGXaamN4F6xeXxS3h5">
    <mxGraphModel dx="636" dy="345" grid="1" gridSize="10" guides="1" tooltips="1" connect="1" arrows="1" fold="1" page="1" pageScale="1" pageWidth="1169" pageHeight="1654" math="0" shadow="0">
      <root>
        <mxCell id="0" />
        <mxCell id="1" parent="0" />
        <mxCell id="WRDxdlmeiS9B5pCvXVZm-9" value="" style="group" vertex="1" connectable="0" parent="1">
          <mxGeometry x="440" y="180" width="319.39" height="300" as="geometry" />
        </mxCell>
        <mxCell id="WRDxdlmeiS9B5pCvXVZm-1" value="" style="ellipse;whiteSpace=wrap;html=1;aspect=fixed;fillColor=none;strokeColor=#000000;" vertex="1" parent="WRDxdlmeiS9B5pCvXVZm-9">
          <mxGeometry x="45.62714285714286" y="71.86311787072243" width="182.50857142857143" height="182.50857142857143" as="geometry" />
        </mxCell>
        <mxCell id="WRDxdlmeiS9B5pCvXVZm-2" value="" style="endArrow=classic;html=1;rounded=0;" edge="1" parent="WRDxdlmeiS9B5pCvXVZm-9">
          <mxGeometry width="50" height="50" relative="1" as="geometry">
            <mxPoint y="163.11787072243345" as="sourcePoint" />
            <mxPoint x="273.7628571428571" y="163.11787072243345" as="targetPoint" />
          </mxGeometry>
        </mxCell>
        <mxCell id="WRDxdlmeiS9B5pCvXVZm-3" value="" style="endArrow=classic;html=1;rounded=0;" edge="1" parent="WRDxdlmeiS9B5pCvXVZm-9">
          <mxGeometry width="50" height="50" relative="1" as="geometry">
            <mxPoint x="136.88142857142856" y="300" as="sourcePoint" />
            <mxPoint x="136.88142857142856" y="26.23574144486692" as="targetPoint" />
          </mxGeometry>
        </mxCell>
        <mxCell id="WRDxdlmeiS9B5pCvXVZm-4" value="I" style="text;html=1;align=center;verticalAlign=middle;whiteSpace=wrap;rounded=0;fontFamily=modern;fontSource=https%3A%2F%2Fsourceforge.net%2Fprojects%2Fcm-unicode%2F;" vertex="1" parent="WRDxdlmeiS9B5pCvXVZm-9">
          <mxGeometry x="250.9492857142857" y="146.00760456273764" width="68.44071428571428" height="34.22053231939164" as="geometry" />
        </mxCell>
        <mxCell id="WRDxdlmeiS9B5pCvXVZm-5" value="Q" style="text;html=1;align=center;verticalAlign=middle;whiteSpace=wrap;rounded=0;fontFamily=modern;fontSource=https%3A%2F%2Fsourceforge.net%2Fprojects%2Fcm-unicode%2F;" vertex="1" parent="WRDxdlmeiS9B5pCvXVZm-9">
          <mxGeometry x="102.66107142857143" width="68.44071428571428" height="34.22053231939164" as="geometry" />
        </mxCell>
        <mxCell id="WRDxdlmeiS9B5pCvXVZm-6" value="" style="endArrow=classic;html=1;rounded=0;entryX=1;entryY=0;entryDx=0;entryDy=0;strokeColor=#000000;" edge="1" parent="WRDxdlmeiS9B5pCvXVZm-9" target="WRDxdlmeiS9B5pCvXVZm-1">
          <mxGeometry width="50" height="50" relative="1" as="geometry">
            <mxPoint x="136.88142857142856" y="163.11787072243345" as="sourcePoint" />
            <mxPoint x="193.91535714285715" y="106.08365019011407" as="targetPoint" />
          </mxGeometry>
        </mxCell>
        <mxCell id="WRDxdlmeiS9B5pCvXVZm-7" value="" style="verticalLabelPosition=bottom;verticalAlign=top;html=1;shape=mxgraph.basic.arc;startAngle=0.12744834443495037;endAngle=0.25;" vertex="1" parent="WRDxdlmeiS9B5pCvXVZm-9">
          <mxGeometry x="114.06785714285715" y="140.3041825095057" width="45.62714285714286" height="45.627376425855516" as="geometry" />
        </mxCell>
        <mxCell id="WRDxdlmeiS9B5pCvXVZm-8" value="&lt;font data-font-src=&quot;https://sourceforge.net/projects/cm-unicode/&quot; face=&quot;modern&quot;&gt;Phase&lt;/font&gt;" style="text;html=1;align=center;verticalAlign=middle;whiteSpace=wrap;rounded=0;" vertex="1" parent="WRDxdlmeiS9B5pCvXVZm-9">
          <mxGeometry x="144.99821428571428" y="132.8941825095057" width="68.44071428571428" height="34.22053231939164" as="geometry" />
        </mxCell>
        <mxCell id="WRDxdlmeiS9B5pCvXVZm-10" value="&lt;font data-font-src=&quot;https://sourceforge.net/projects/cm-unicode/&quot; face=&quot;modern&quot;&gt;Amplitude&lt;/font&gt;" style="text;html=1;align=center;verticalAlign=middle;whiteSpace=wrap;rounded=0;rotation=-45;" vertex="1" parent="WRDxdlmeiS9B5pCvXVZm-9">
          <mxGeometry x="129.70000000000005" y="108.88999999999999" width="60" height="30" as="geometry" />
        </mxCell>
      </root>
    </mxGraphModel>
  </diagram>
</mxfile>
